<svg width="76" height="58" viewBox="0 0 76 58" fill="none" xmlns="http://www.w3.org/2000/svg">
  <path
    d="M21.1854 48.7829C21.1854 48.4673 21.095 48.1753 20.9142 47.907C20.7435 47.6309 20.3869 47.3823 19.8445 47.1614C19.3121 46.9325 18.5085 46.7353 17.4337 46.5696C16.5297 46.4197 15.711 46.2421 14.9777 46.037C14.2545 45.8318 13.6368 45.5833 13.1245 45.2913C12.6222 44.9994 12.2355 44.6561 11.9643 44.2616C11.6931 43.8671 11.5575 43.4055 11.5575 42.8768C11.5575 42.3718 11.6981 41.8945 11.9794 41.4447C12.2707 40.9949 12.6775 40.5965 13.1998 40.2493C13.7322 39.9021 14.37 39.6299 15.1134 39.4326C15.8567 39.2354 16.6854 39.1367 17.5994 39.1367C18.9053 39.1367 20.0202 39.3182 20.9444 39.6812C21.8685 40.0441 22.5766 40.5294 23.0688 41.137C23.561 41.7366 23.8071 42.4034 23.8071 43.1372H21.0197C21.0197 42.7821 20.8841 42.4389 20.6129 42.1075C20.3517 41.7682 19.965 41.4881 19.4527 41.2672C18.9505 41.0462 18.3327 40.9358 17.5994 40.9358C16.826 40.9358 16.1982 41.0304 15.716 41.2198C15.2439 41.4013 14.8974 41.6341 14.6764 41.9181C14.4655 42.2022 14.36 42.502 14.36 42.8176C14.36 43.0544 14.4102 43.2674 14.5107 43.4568C14.6212 43.6383 14.812 43.8079 15.0832 43.9657C15.3544 44.1156 15.7361 44.2577 16.2283 44.3918C16.7205 44.5259 17.3483 44.6601 18.1117 44.7942C19.4477 45.0309 20.5476 45.315 21.4115 45.6464C22.2753 45.9778 22.9182 46.3842 23.3401 46.8655C23.7619 47.3468 23.9729 47.9307 23.9729 48.6172C23.9729 49.1774 23.8222 49.6903 23.5209 50.1558C23.2296 50.6214 22.8027 51.0238 22.2401 51.3631C21.6877 51.6945 21.0247 51.9549 20.2513 52.1442C19.4879 52.3257 18.629 52.4165 17.6748 52.4165C16.2384 52.4165 15.0229 52.2152 14.0285 51.8128C13.0341 51.4104 12.2807 50.8896 11.7684 50.2505C11.2561 49.6114 11 48.9367 11 48.2266H13.8025C13.8427 48.8263 14.0637 49.3036 14.4655 49.6587C14.8673 50.0059 15.3594 50.2545 15.942 50.4044C16.5246 50.5464 17.1022 50.6174 17.6748 50.6174C18.4382 50.6174 19.076 50.5385 19.5883 50.3807C20.1106 50.2229 20.5074 50.0059 20.7786 49.7297C21.0498 49.4536 21.1854 49.1379 21.1854 48.7829Z"
    fill="white" />
  <path
    d="M30.4216 34V52.1797H27.6342V34H30.4216ZM29.7587 45.2913L28.5985 45.2558C28.6086 44.38 28.7743 43.5712 29.0957 42.8295C29.4172 42.0799 29.8692 41.4289 30.4518 40.8766C31.0344 40.3242 31.7275 39.8982 32.5311 39.5983C33.3447 39.2906 34.2437 39.1367 35.2281 39.1367C36.0317 39.1367 36.7549 39.2235 37.3978 39.3971C38.0406 39.5628 38.5881 39.8311 39.0401 40.2019C39.5022 40.5728 39.8537 41.0541 40.0948 41.6459C40.3359 42.2298 40.4564 42.9439 40.4564 43.7882V52.1797H37.6539V43.7645C37.6539 43.0938 37.5284 42.5573 37.2772 42.1548C37.0261 41.7445 36.6595 41.4486 36.1773 41.2672C35.6952 41.0778 35.1025 40.9831 34.3994 40.9831C33.7063 40.9831 33.0735 41.0975 32.5009 41.3263C31.9384 41.5552 31.4512 41.8708 31.0394 42.2732C30.6376 42.6756 30.3212 43.1372 30.0902 43.658C29.8692 44.1709 29.7587 44.7153 29.7587 45.2913Z"
    fill="white" />
  <path
    d="M43.8917 45.9186V45.6464C43.8917 44.7232 44.0625 43.8671 44.404 43.078C44.7456 42.2811 45.2378 41.5907 45.8806 41.0068C46.5235 40.415 47.302 39.9573 48.216 39.6338C49.1301 39.3024 50.1547 39.1367 51.2898 39.1367C52.4349 39.1367 53.4645 39.3024 54.3785 39.6338C55.3027 39.9573 56.0862 40.415 56.729 41.0068C57.3819 41.5907 57.8791 42.2811 58.2207 43.078C58.5622 43.8671 58.733 44.7232 58.733 45.6464V45.9186C58.733 46.8418 58.5622 47.6979 58.2207 48.487C57.8791 49.276 57.3819 49.9665 56.729 50.5582C56.0862 51.1421 55.3077 51.5998 54.3936 51.9312C53.4896 52.2547 52.465 52.4165 51.3199 52.4165C50.1748 52.4165 49.1452 52.2547 48.2311 51.9312C47.317 51.5998 46.5335 51.1421 45.8806 50.5582C45.2378 49.9665 44.7456 49.276 44.404 48.487C44.0625 47.6979 43.8917 46.8418 43.8917 45.9186ZM46.6792 45.6464V45.9186C46.6792 46.5577 46.7746 47.1614 46.9655 47.7295C47.1563 48.2897 47.4426 48.7868 47.8243 49.2208C48.216 49.6548 48.7032 49.998 49.2858 50.2505C49.8684 50.4951 50.5464 50.6174 51.3199 50.6174C52.0833 50.6174 52.7513 50.4951 53.3238 50.2505C53.9064 49.998 54.3886 49.6548 54.7703 49.2208C55.152 48.7868 55.4383 48.2897 55.6291 47.7295C55.83 47.1614 55.9305 46.5577 55.9305 45.9186V45.6464C55.9305 45.0152 55.83 44.4194 55.6291 43.8592C55.4383 43.2911 55.147 42.79 54.7552 42.3561C54.3735 41.9142 53.8914 41.567 53.3088 41.3145C52.7362 41.062 52.0632 40.9358 51.2898 40.9358C50.5263 40.9358 49.8533 41.062 49.2707 41.3145C48.6982 41.567 48.216 41.9142 47.8243 42.3561C47.4426 42.79 47.1563 43.2911 46.9655 43.8592C46.7746 44.4194 46.6792 45.0152 46.6792 45.6464Z"
    fill="white" />
  <path
    d="M65.016 41.8353V57.1034H62.2135V39.3734H64.7749L65.016 41.8353ZM76 45.6701V45.9186C76 46.8497 75.8594 47.7137 75.5781 48.5107C75.2969 49.2997 74.885 49.9862 74.3426 50.5701C73.8102 51.154 73.1523 51.6077 72.3688 51.9312C71.5853 52.2547 70.6863 52.4165 69.6718 52.4165C68.6371 52.4165 67.7231 52.2823 66.9295 52.014C66.136 51.7458 65.463 51.3552 64.9105 50.8423C64.3581 50.3294 63.9161 49.714 63.5846 48.9959C63.2632 48.2779 63.0422 47.4691 62.9216 46.5696V45.244C63.0422 44.2971 63.2682 43.4489 63.5997 42.6993C63.9312 41.9497 64.3681 41.3106 64.9105 40.7819C65.463 40.2453 66.131 39.839 66.9145 39.5628C67.698 39.2788 68.602 39.1367 69.6266 39.1367C70.6511 39.1367 71.5602 39.2945 72.3537 39.6102C73.1473 39.9179 73.8152 40.3598 74.3577 40.9358C74.9001 41.5118 75.3069 42.2022 75.5781 43.007C75.8594 43.804 76 44.6916 76 45.6701ZM73.1975 45.9186V45.6701C73.1975 45.0309 73.1121 44.4313 72.9413 43.871C72.7706 43.3029 72.5044 42.8058 72.1428 42.3797C71.7912 41.9457 71.3392 41.6065 70.7867 41.3618C70.2343 41.1094 69.5763 40.9831 68.8129 40.9831C68.1098 40.9831 67.4971 41.0778 66.9747 41.2672C66.4624 41.4565 66.0255 41.713 65.6639 42.0365C65.3023 42.3521 65.0059 42.7151 64.7749 43.1254C64.5539 43.5278 64.3882 43.946 64.2777 44.38V47.4454C64.4786 47.9978 64.7598 48.5185 65.1215 49.0078C65.4831 49.4891 65.9652 49.8797 66.5679 50.1795C67.1706 50.4714 67.929 50.6174 68.8431 50.6174C69.5964 50.6174 70.2443 50.4951 70.7867 50.2505C71.3392 49.998 71.7912 49.6548 72.1428 49.2208C72.5044 48.7868 72.7706 48.2897 72.9413 47.7295C73.1121 47.1614 73.1975 46.5577 73.1975 45.9186Z"
    fill="white" />
  <path
    d="M1.95557 19.3359H3.81592L6.55518 27.1655L9.29443 19.3359H11.1548L7.30225 30H5.80811L1.95557 19.3359ZM0.952148 19.3359H2.80518L3.14209 26.9678V30H0.952148V19.3359ZM10.3052 19.3359H12.1655V30H9.96826V26.9678L10.3052 19.3359ZM16.311 29.1064L18.4131 22.0752H20.6763L17.4902 31.1938C17.4219 31.394 17.3291 31.6089 17.2119 31.8384C17.0996 32.0679 16.9458 32.2852 16.7505 32.4902C16.5601 32.7002 16.3184 32.8711 16.0254 33.0029C15.7373 33.1348 15.3833 33.2007 14.9634 33.2007C14.7632 33.2007 14.5996 33.1885 14.4727 33.1641C14.3457 33.1396 14.1943 33.1055 14.0186 33.0615V31.5161C14.0723 31.5161 14.1284 31.5161 14.187 31.5161C14.2456 31.521 14.3018 31.5234 14.3555 31.5234C14.6338 31.5234 14.8608 31.4917 15.0366 31.4282C15.2124 31.3647 15.354 31.2671 15.4614 31.1353C15.5688 31.0083 15.6543 30.8423 15.7178 30.6372L16.311 29.1064ZM15.4321 22.0752L17.1533 27.8174L17.4536 30.0513L16.0181 30.2051L13.1689 22.0752H15.4321Z"
    fill="white" />
  <path
    d="M1.95557 19.3359V18.3359H0.531048L1.01506 19.6757L1.95557 19.3359ZM3.81592 19.3359L4.75982 19.0057L4.52549 18.3359H3.81592V19.3359ZM6.55518 27.1655L5.61128 27.4958L6.55518 30.1937L7.49908 27.4958L6.55518 27.1655ZM9.29443 19.3359V18.3359H8.58486L8.35053 19.0057L9.29443 19.3359ZM11.1548 19.3359L12.0953 19.6757L12.5793 18.3359H11.1548V19.3359ZM7.30225 30V31H8.00424L8.24275 30.3398L7.30225 30ZM5.80811 30L4.8676 30.3398L5.10611 31H5.80811V30ZM0.952148 19.3359V18.3359H-0.0478516V19.3359H0.952148ZM2.80518 19.3359L3.8042 19.2918L3.762 18.3359H2.80518V19.3359ZM3.14209 26.9678H4.14209V26.9457L4.14112 26.9237L3.14209 26.9678ZM3.14209 30V31H4.14209V30H3.14209ZM0.952148 30H-0.0478516V31H0.952148V30ZM10.3052 19.3359V18.3359H9.34835L9.30615 19.2918L10.3052 19.3359ZM12.1655 19.3359H13.1655V18.3359H12.1655V19.3359ZM12.1655 30V31H13.1655V30H12.1655ZM9.96826 30H8.96826V31H9.96826V30ZM9.96826 26.9678L8.96923 26.9237L8.96826 26.9457V26.9678H9.96826ZM1.95557 20.3359H3.81592V18.3359H1.95557V20.3359ZM2.87202 19.6662L5.61128 27.4958L7.49908 26.8353L4.75982 19.0057L2.87202 19.6662ZM7.49908 27.4958L10.2383 19.6662L8.35053 19.0057L5.61128 26.8353L7.49908 27.4958ZM9.29443 20.3359H11.1548V18.3359H9.29443V20.3359ZM10.2143 18.9962L6.36174 29.6602L8.24275 30.3398L12.0953 19.6757L10.2143 18.9962ZM7.30225 29H5.80811V31H7.30225V29ZM6.74861 29.6602L2.89607 18.9962L1.01506 19.6757L4.8676 30.3398L6.74861 29.6602ZM0.952148 20.3359H2.80518V18.3359H0.952148V20.3359ZM1.80615 19.38L2.14306 27.0119L4.14112 26.9237L3.8042 19.2918L1.80615 19.38ZM2.14209 26.9678V30H4.14209V26.9678H2.14209ZM3.14209 29H0.952148V31H3.14209V29ZM1.95215 30V19.3359H-0.0478516V30H1.95215ZM10.3052 20.3359H12.1655V18.3359H10.3052V20.3359ZM11.1655 19.3359V30H13.1655V19.3359H11.1655ZM12.1655 29H9.96826V31H12.1655V29ZM10.9683 30V26.9678H8.96826V30H10.9683ZM10.9673 27.0119L11.3042 19.38L9.30615 19.2918L8.96923 26.9237L10.9673 27.0119ZM16.311 29.1064L17.2435 29.4678L17.2578 29.4309L17.2691 29.3929L16.311 29.1064ZM18.4131 22.0752V21.0752H17.6683L17.455 21.7888L18.4131 22.0752ZM20.6763 22.0752L21.6203 22.405L22.0849 21.0752H20.6763V22.0752ZM17.4902 31.1938L16.5462 30.864L16.5439 30.8707L17.4902 31.1938ZM17.2119 31.8384L16.3213 31.3836L16.3174 31.3912L16.3137 31.3988L17.2119 31.8384ZM16.7505 32.4902L16.0264 31.8006L16.018 31.8094L16.0098 31.8184L16.7505 32.4902ZM16.0254 33.0029L15.615 32.091L15.6093 32.0936L16.0254 33.0029ZM14.0186 33.0615H13.0186V33.8423L13.776 34.0317L14.0186 33.0615ZM14.0186 31.5161V30.5161H13.0186V31.5161H14.0186ZM14.187 31.5161L14.2701 30.5196L14.2286 30.5161H14.187V31.5161ZM15.4614 31.1353L14.698 30.4893L14.692 30.4964L14.6862 30.5036L15.4614 31.1353ZM15.7178 30.6372L14.7854 30.2758L14.7728 30.3083L14.7625 30.3415L15.7178 30.6372ZM15.4321 22.0752L16.39 21.7881L16.1763 21.0752H15.4321V22.0752ZM17.1533 27.8174L18.1444 27.6842L18.1339 27.6059L18.1112 27.5303L17.1533 27.8174ZM17.4536 30.0513L17.5601 31.0456L18.5816 30.9361L18.4447 29.918L17.4536 30.0513ZM16.0181 30.2051L15.0743 30.5358L15.3365 31.2838L16.1246 31.1994L16.0181 30.2051ZM13.1689 22.0752V21.0752H11.7589L12.2252 22.4059L13.1689 22.0752ZM17.2691 29.3929L19.3712 22.3616L17.455 21.7888L15.3529 28.82L17.2691 29.3929ZM18.4131 23.0752H20.6763V21.0752H18.4131V23.0752ZM19.7322 21.7454L16.5462 30.864L18.4343 31.5237L21.6203 22.405L19.7322 21.7454ZM16.5439 30.8707C16.4938 31.0173 16.4213 31.1878 16.3213 31.3836L18.1025 32.2932C18.2369 32.03 18.3499 31.7708 18.4366 31.517L16.5439 30.8707ZM16.3137 31.3988C16.2509 31.5272 16.1588 31.6615 16.0264 31.8006L17.4746 33.1799C17.7328 32.9088 17.9483 32.6086 18.1101 32.2779L16.3137 31.3988ZM16.0098 31.8184C15.9233 31.9137 15.7992 32.0081 15.615 32.091L16.4358 33.9149C16.8375 33.7341 17.1968 33.4867 17.4912 33.162L16.0098 31.8184ZM15.6093 32.0936C15.487 32.1496 15.2842 32.2007 14.9634 32.2007V34.2007C15.4824 34.2007 15.9877 34.1199 16.4415 33.9122L15.6093 32.0936ZM14.9634 32.2007C14.7961 32.2007 14.7022 32.1899 14.6615 32.1821L14.2838 34.1461C14.4971 34.1871 14.7302 34.2007 14.9634 34.2007V32.2007ZM14.6615 32.1821C14.5581 32.1622 14.4255 32.1325 14.2611 32.0914L13.776 34.0317C13.9631 34.0784 14.1333 34.1171 14.2838 34.1461L14.6615 32.1821ZM15.0186 33.0615V31.5161H13.0186V33.0615H15.0186ZM14.0186 32.5161C14.0187 32.5161 14.0188 32.5161 14.0189 32.5161C14.019 32.5161 14.0191 32.5161 14.0192 32.5161C14.0193 32.5161 14.0194 32.5161 14.0195 32.5161C14.0196 32.5161 14.0197 32.5161 14.0198 32.5161C14.0199 32.5161 14.02 32.5161 14.0201 32.5161C14.0202 32.5161 14.0203 32.5161 14.0204 32.5161C14.0205 32.5161 14.0207 32.5161 14.0208 32.5161C14.0209 32.5161 14.021 32.5161 14.0211 32.5161C14.0212 32.5161 14.0213 32.5161 14.0214 32.5161C14.0215 32.5161 14.0216 32.5161 14.0217 32.5161C14.0218 32.5161 14.0219 32.5161 14.022 32.5161C14.0221 32.5161 14.0222 32.5161 14.0223 32.5161C14.0224 32.5161 14.0225 32.5161 14.0227 32.5161C14.0228 32.5161 14.0229 32.5161 14.023 32.5161C14.0231 32.5161 14.0232 32.5161 14.0233 32.5161C14.0234 32.5161 14.0235 32.5161 14.0236 32.5161C14.0237 32.5161 14.0238 32.5161 14.0239 32.5161C14.024 32.5161 14.0241 32.5161 14.0242 32.5161C14.0243 32.5161 14.0244 32.5161 14.0245 32.5161C14.0246 32.5161 14.0248 32.5161 14.0249 32.5161C14.025 32.5161 14.0251 32.5161 14.0252 32.5161C14.0253 32.5161 14.0254 32.5161 14.0255 32.5161C14.0256 32.5161 14.0257 32.5161 14.0258 32.5161C14.0259 32.5161 14.026 32.5161 14.0261 32.5161C14.0262 32.5161 14.0263 32.5161 14.0264 32.5161C14.0265 32.5161 14.0267 32.5161 14.0268 32.5161C14.0269 32.5161 14.027 32.5161 14.0271 32.5161C14.0272 32.5161 14.0273 32.5161 14.0274 32.5161C14.0275 32.5161 14.0276 32.5161 14.0277 32.5161C14.0278 32.5161 14.0279 32.5161 14.028 32.5161C14.0281 32.5161 14.0282 32.5161 14.0283 32.5161C14.0284 32.5161 14.0285 32.5161 14.0287 32.5161C14.0288 32.5161 14.0289 32.5161 14.029 32.5161C14.0291 32.5161 14.0292 32.5161 14.0293 32.5161C14.0294 32.5161 14.0295 32.5161 14.0296 32.5161C14.0297 32.5161 14.0298 32.5161 14.0299 32.5161C14.03 32.5161 14.0301 32.5161 14.0302 32.5161C14.0303 32.5161 14.0304 32.5161 14.0306 32.5161C14.0307 32.5161 14.0308 32.5161 14.0309 32.5161C14.031 32.5161 14.0311 32.5161 14.0312 32.5161C14.0313 32.5161 14.0314 32.5161 14.0315 32.5161C14.0316 32.5161 14.0317 32.5161 14.0318 32.5161C14.0319 32.5161 14.032 32.5161 14.0321 32.5161C14.0322 32.5161 14.0324 32.5161 14.0325 32.5161C14.0326 32.5161 14.0327 32.5161 14.0328 32.5161C14.0329 32.5161 14.033 32.5161 14.0331 32.5161C14.0332 32.5161 14.0333 32.5161 14.0334 32.5161C14.0335 32.5161 14.0336 32.5161 14.0337 32.5161C14.0338 32.5161 14.0339 32.5161 14.034 32.5161C14.0341 32.5161 14.0343 32.5161 14.0344 32.5161C14.0345 32.5161 14.0346 32.5161 14.0347 32.5161C14.0348 32.5161 14.0349 32.5161 14.035 32.5161C14.0351 32.5161 14.0352 32.5161 14.0353 32.5161C14.0354 32.5161 14.0355 32.5161 14.0356 32.5161C14.0357 32.5161 14.0358 32.5161 14.0359 32.5161C14.0361 32.5161 14.0362 32.5161 14.0363 32.5161C14.0364 32.5161 14.0365 32.5161 14.0366 32.5161C14.0367 32.5161 14.0368 32.5161 14.0369 32.5161C14.037 32.5161 14.0371 32.5161 14.0372 32.5161C14.0373 32.5161 14.0374 32.5161 14.0375 32.5161C14.0376 32.5161 14.0378 32.5161 14.0379 32.5161C14.038 32.5161 14.0381 32.5161 14.0382 32.5161C14.0383 32.5161 14.0384 32.5161 14.0385 32.5161C14.0386 32.5161 14.0387 32.5161 14.0388 32.5161C14.0389 32.5161 14.039 32.5161 14.0391 32.5161C14.0392 32.5161 14.0393 32.5161 14.0394 32.5161C14.0396 32.5161 14.0397 32.5161 14.0398 32.5161C14.0399 32.5161 14.04 32.5161 14.0401 32.5161C14.0402 32.5161 14.0403 32.5161 14.0404 32.5161C14.0405 32.5161 14.0406 32.5161 14.0407 32.5161C14.0408 32.5161 14.0409 32.5161 14.041 32.5161C14.0411 32.5161 14.0413 32.5161 14.0414 32.5161C14.0415 32.5161 14.0416 32.5161 14.0417 32.5161C14.0418 32.5161 14.0419 32.5161 14.042 32.5161C14.0421 32.5161 14.0422 32.5161 14.0423 32.5161C14.0424 32.5161 14.0425 32.5161 14.0426 32.5161C14.0427 32.5161 14.0428 32.5161 14.043 32.5161C14.0431 32.5161 14.0432 32.5161 14.0433 32.5161C14.0434 32.5161 14.0435 32.5161 14.0436 32.5161C14.0437 32.5161 14.0438 32.5161 14.0439 32.5161C14.044 32.5161 14.0441 32.5161 14.0442 32.5161C14.0443 32.5161 14.0444 32.5161 14.0445 32.5161C14.0447 32.5161 14.0448 32.5161 14.0449 32.5161C14.045 32.5161 14.0451 32.5161 14.0452 32.5161C14.0453 32.5161 14.0454 32.5161 14.0455 32.5161C14.0456 32.5161 14.0457 32.5161 14.0458 32.5161C14.0459 32.5161 14.046 32.5161 14.0461 32.5161C14.0463 32.5161 14.0464 32.5161 14.0465 32.5161C14.0466 32.5161 14.0467 32.5161 14.0468 32.5161C14.0469 32.5161 14.047 32.5161 14.0471 32.5161C14.0472 32.5161 14.0473 32.5161 14.0474 32.5161C14.0475 32.5161 14.0476 32.5161 14.0477 32.5161C14.0479 32.5161 14.048 32.5161 14.0481 32.5161C14.0482 32.5161 14.0483 32.5161 14.0484 32.5161C14.0485 32.5161 14.0486 32.5161 14.0487 32.5161C14.0488 32.5161 14.0489 32.5161 14.049 32.5161C14.0491 32.5161 14.0492 32.5161 14.0493 32.5161C14.0495 32.5161 14.0496 32.5161 14.0497 32.5161C14.0498 32.5161 14.0499 32.5161 14.05 32.5161C14.0501 32.5161 14.0502 32.5161 14.0503 32.5161C14.0504 32.5161 14.0505 32.5161 14.0506 32.5161C14.0507 32.5161 14.0508 32.5161 14.0509 32.5161C14.0511 32.5161 14.0512 32.5161 14.0513 32.5161C14.0514 32.5161 14.0515 32.5161 14.0516 32.5161C14.0517 32.5161 14.0518 32.5161 14.0519 32.5161C14.052 32.5161 14.0521 32.5161 14.0522 32.5161C14.0523 32.5161 14.0524 32.5161 14.0525 32.5161C14.0527 32.5161 14.0528 32.5161 14.0529 32.5161C14.053 32.5161 14.0531 32.5161 14.0532 32.5161C14.0533 32.5161 14.0534 32.5161 14.0535 32.5161C14.0536 32.5161 14.0537 32.5161 14.0538 32.5161C14.0539 32.5161 14.054 32.5161 14.0542 32.5161C14.0543 32.5161 14.0544 32.5161 14.0545 32.5161C14.0546 32.5161 14.0547 32.5161 14.0548 32.5161C14.0549 32.5161 14.055 32.5161 14.0551 32.5161C14.0552 32.5161 14.0553 32.5161 14.0554 32.5161C14.0555 32.5161 14.0557 32.5161 14.0558 32.5161C14.0559 32.5161 14.056 32.5161 14.0561 32.5161C14.0562 32.5161 14.0563 32.5161 14.0564 32.5161C14.0565 32.5161 14.0566 32.5161 14.0567 32.5161C14.0568 32.5161 14.0569 32.5161 14.057 32.5161C14.0572 32.5161 14.0573 32.5161 14.0574 32.5161C14.0575 32.5161 14.0576 32.5161 14.0577 32.5161C14.0578 32.5161 14.0579 32.5161 14.058 32.5161C14.0581 32.5161 14.0582 32.5161 14.0583 32.5161C14.0584 32.5161 14.0585 32.5161 14.0587 32.5161C14.0588 32.5161 14.0589 32.5161 14.059 32.5161C14.0591 32.5161 14.0592 32.5161 14.0593 32.5161C14.0594 32.5161 14.0595 32.5161 14.0596 32.5161C14.0597 32.5161 14.0598 32.5161 14.0599 32.5161C14.06 32.5161 14.0602 32.5161 14.0603 32.5161C14.0604 32.5161 14.0605 32.5161 14.0606 32.5161C14.0607 32.5161 14.0608 32.5161 14.0609 32.5161C14.061 32.5161 14.0611 32.5161 14.0612 32.5161C14.0613 32.5161 14.0614 32.5161 14.0616 32.5161C14.0617 32.5161 14.0618 32.5161 14.0619 32.5161C14.062 32.5161 14.0621 32.5161 14.0622 32.5161C14.0623 32.5161 14.0624 32.5161 14.0625 32.5161C14.0626 32.5161 14.0627 32.5161 14.0628 32.5161C14.0629 32.5161 14.0631 32.5161 14.0632 32.5161C14.0633 32.5161 14.0634 32.5161 14.0635 32.5161C14.0636 32.5161 14.0637 32.5161 14.0638 32.5161C14.0639 32.5161 14.064 32.5161 14.0641 32.5161C14.0642 32.5161 14.0643 32.5161 14.0645 32.5161C14.0646 32.5161 14.0647 32.5161 14.0648 32.5161C14.0649 32.5161 14.065 32.5161 14.0651 32.5161C14.0652 32.5161 14.0653 32.5161 14.0654 32.5161C14.0655 32.5161 14.0656 32.5161 14.0657 32.5161C14.0659 32.5161 14.066 32.5161 14.0661 32.5161C14.0662 32.5161 14.0663 32.5161 14.0664 32.5161C14.0665 32.5161 14.0666 32.5161 14.0667 32.5161C14.0668 32.5161 14.0669 32.5161 14.067 32.5161C14.0671 32.5161 14.0673 32.5161 14.0674 32.5161C14.0675 32.5161 14.0676 32.5161 14.0677 32.5161C14.0678 32.5161 14.0679 32.5161 14.068 32.5161C14.0681 32.5161 14.0682 32.5161 14.0683 32.5161C14.0684 32.5161 14.0685 32.5161 14.0687 32.5161C14.0688 32.5161 14.0689 32.5161 14.069 32.5161C14.0691 32.5161 14.0692 32.5161 14.0693 32.5161C14.0694 32.5161 14.0695 32.5161 14.0696 32.5161C14.0697 32.5161 14.0698 32.5161 14.0699 32.5161C14.0701 32.5161 14.0702 32.5161 14.0703 32.5161C14.0704 32.5161 14.0705 32.5161 14.0706 32.5161C14.0707 32.5161 14.0708 32.5161 14.0709 32.5161C14.071 32.5161 14.0711 32.5161 14.0712 32.5161C14.0714 32.5161 14.0715 32.5161 14.0716 32.5161C14.0717 32.5161 14.0718 32.5161 14.0719 32.5161C14.072 32.5161 14.0721 32.5161 14.0722 32.5161C14.0723 32.5161 14.0724 32.5161 14.0725 32.5161C14.0726 32.5161 14.0728 32.5161 14.0729 32.5161C14.073 32.5161 14.0731 32.5161 14.0732 32.5161C14.0733 32.5161 14.0734 32.5161 14.0735 32.5161C14.0736 32.5161 14.0737 32.5161 14.0738 32.5161C14.0739 32.5161 14.0741 32.5161 14.0742 32.5161C14.0743 32.5161 14.0744 32.5161 14.0745 32.5161C14.0746 32.5161 14.0747 32.5161 14.0748 32.5161C14.0749 32.5161 14.075 32.5161 14.0751 32.5161C14.0752 32.5161 14.0754 32.5161 14.0755 32.5161C14.0756 32.5161 14.0757 32.5161 14.0758 32.5161C14.0759 32.5161 14.076 32.5161 14.0761 32.5161C14.0762 32.5161 14.0763 32.5161 14.0764 32.5161C14.0765 32.5161 14.0766 32.5161 14.0768 32.5161C14.0769 32.5161 14.077 32.5161 14.0771 32.5161C14.0772 32.5161 14.0773 32.5161 14.0774 32.5161C14.0775 32.5161 14.0776 32.5161 14.0777 32.5161C14.0778 32.5161 14.0779 32.5161 14.0781 32.5161C14.0782 32.5161 14.0783 32.5161 14.0784 32.5161C14.0785 32.5161 14.0786 32.5161 14.0787 32.5161C14.0788 32.5161 14.0789 32.5161 14.079 32.5161C14.0791 32.5161 14.0793 32.5161 14.0794 32.5161C14.0795 32.5161 14.0796 32.5161 14.0797 32.5161C14.0798 32.5161 14.0799 32.5161 14.08 32.5161C14.0801 32.5161 14.0802 32.5161 14.0803 32.5161C14.0804 32.5161 14.0806 32.5161 14.0807 32.5161C14.0808 32.5161 14.0809 32.5161 14.081 32.5161C14.0811 32.5161 14.0812 32.5161 14.0813 32.5161C14.0814 32.5161 14.0815 32.5161 14.0816 32.5161C14.0817 32.5161 14.0819 32.5161 14.082 32.5161C14.0821 32.5161 14.0822 32.5161 14.0823 32.5161C14.0824 32.5161 14.0825 32.5161 14.0826 32.5161C14.0827 32.5161 14.0828 32.5161 14.0829 32.5161C14.083 32.5161 14.0832 32.5161 14.0833 32.5161C14.0834 32.5161 14.0835 32.5161 14.0836 32.5161C14.0837 32.5161 14.0838 32.5161 14.0839 32.5161C14.084 32.5161 14.0841 32.5161 14.0842 32.5161C14.0844 32.5161 14.0845 32.5161 14.0846 32.5161C14.0847 32.5161 14.0848 32.5161 14.0849 32.5161C14.085 32.5161 14.0851 32.5161 14.0852 32.5161C14.0853 32.5161 14.0854 32.5161 14.0856 32.5161C14.0857 32.5161 14.0858 32.5161 14.0859 32.5161C14.086 32.5161 14.0861 32.5161 14.0862 32.5161C14.0863 32.5161 14.0864 32.5161 14.0865 32.5161C14.0866 32.5161 14.0867 32.5161 14.0869 32.5161C14.087 32.5161 14.0871 32.5161 14.0872 32.5161C14.0873 32.5161 14.0874 32.5161 14.0875 32.5161C14.0876 32.5161 14.0877 32.5161 14.0878 32.5161C14.0879 32.5161 14.0881 32.5161 14.0882 32.5161C14.0883 32.5161 14.0884 32.5161 14.0885 32.5161C14.0886 32.5161 14.0887 32.5161 14.0888 32.5161C14.0889 32.5161 14.089 32.5161 14.0891 32.5161C14.0893 32.5161 14.0894 32.5161 14.0895 32.5161C14.0896 32.5161 14.0897 32.5161 14.0898 32.5161C14.0899 32.5161 14.09 32.5161 14.0901 32.5161C14.0902 32.5161 14.0903 32.5161 14.0905 32.5161C14.0906 32.5161 14.0907 32.5161 14.0908 32.5161C14.0909 32.5161 14.091 32.5161 14.0911 32.5161C14.0912 32.5161 14.0913 32.5161 14.0914 32.5161C14.0915 32.5161 14.0917 32.5161 14.0918 32.5161C14.0919 32.5161 14.092 32.5161 14.0921 32.5161C14.0922 32.5161 14.0923 32.5161 14.0924 32.5161C14.0925 32.5161 14.0926 32.5161 14.0927 32.5161C14.0929 32.5161 14.093 32.5161 14.0931 32.5161C14.0932 32.5161 14.0933 32.5161 14.0934 32.5161C14.0935 32.5161 14.0936 32.5161 14.0937 32.5161C14.0938 32.5161 14.0939 32.5161 14.0941 32.5161C14.0942 32.5161 14.0943 32.5161 14.0944 32.5161C14.0945 32.5161 14.0946 32.5161 14.0947 32.5161C14.0948 32.5161 14.0949 32.5161 14.095 32.5161C14.0951 32.5161 14.0953 32.5161 14.0954 32.5161C14.0955 32.5161 14.0956 32.5161 14.0957 32.5161C14.0958 32.5161 14.0959 32.5161 14.096 32.5161C14.0961 32.5161 14.0962 32.5161 14.0964 32.5161C14.0965 32.5161 14.0966 32.5161 14.0967 32.5161C14.0968 32.5161 14.0969 32.5161 14.097 32.5161C14.0971 32.5161 14.0972 32.5161 14.0973 32.5161C14.0974 32.5161 14.0976 32.5161 14.0977 32.5161C14.0978 32.5161 14.0979 32.5161 14.098 32.5161C14.0981 32.5161 14.0982 32.5161 14.0983 32.5161C14.0984 32.5161 14.0985 32.5161 14.0987 32.5161C14.0988 32.5161 14.0989 32.5161 14.099 32.5161C14.0991 32.5161 14.0992 32.5161 14.0993 32.5161C14.0994 32.5161 14.0995 32.5161 14.0996 32.5161C14.0997 32.5161 14.0999 32.5161 14.1 32.5161C14.1001 32.5161 14.1002 32.5161 14.1003 32.5161C14.1004 32.5161 14.1005 32.5161 14.1006 32.5161C14.1007 32.5161 14.1008 32.5161 14.101 32.5161C14.1011 32.5161 14.1012 32.5161 14.1013 32.5161C14.1014 32.5161 14.1015 32.5161 14.1016 32.5161C14.1017 32.5161 14.1018 32.5161 14.1019 32.5161C14.102 32.5161 14.1022 32.5161 14.1023 32.5161C14.1024 32.5161 14.1025 32.5161 14.1026 32.5161C14.1027 32.5161 14.1028 32.5161 14.1029 32.5161C14.103 32.5161 14.1031 32.5161 14.1033 32.5161C14.1034 32.5161 14.1035 32.5161 14.1036 32.5161C14.1037 32.5161 14.1038 32.5161 14.1039 32.5161C14.104 32.5161 14.1041 32.5161 14.1042 32.5161C14.1044 32.5161 14.1045 32.5161 14.1046 32.5161C14.1047 32.5161 14.1048 32.5161 14.1049 32.5161C14.105 32.5161 14.1051 32.5161 14.1052 32.5161C14.1053 32.5161 14.1055 32.5161 14.1056 32.5161C14.1057 32.5161 14.1058 32.5161 14.1059 32.5161C14.106 32.5161 14.1061 32.5161 14.1062 32.5161C14.1063 32.5161 14.1064 32.5161 14.1066 32.5161C14.1067 32.5161 14.1068 32.5161 14.1069 32.5161C14.107 32.5161 14.1071 32.5161 14.1072 32.5161C14.1073 32.5161 14.1074 32.5161 14.1075 32.5161C14.1077 32.5161 14.1078 32.5161 14.1079 32.5161C14.108 32.5161 14.1081 32.5161 14.1082 32.5161C14.1083 32.5161 14.1084 32.5161 14.1085 32.5161C14.1086 32.5161 14.1088 32.5161 14.1089 32.5161C14.109 32.5161 14.1091 32.5161 14.1092 32.5161C14.1093 32.5161 14.1094 32.5161 14.1095 32.5161C14.1096 32.5161 14.1097 32.5161 14.1099 32.5161C14.11 32.5161 14.1101 32.5161 14.1102 32.5161C14.1103 32.5161 14.1104 32.5161 14.1105 32.5161C14.1106 32.5161 14.1107 32.5161 14.1108 32.5161C14.111 32.5161 14.1111 32.5161 14.1112 32.5161C14.1113 32.5161 14.1114 32.5161 14.1115 32.5161C14.1116 32.5161 14.1117 32.5161 14.1118 32.5161C14.112 32.5161 14.1121 32.5161 14.1122 32.5161C14.1123 32.5161 14.1124 32.5161 14.1125 32.5161C14.1126 32.5161 14.1127 32.5161 14.1128 32.5161C14.1129 32.5161 14.1131 32.5161 14.1132 32.5161C14.1133 32.5161 14.1134 32.5161 14.1135 32.5161C14.1136 32.5161 14.1137 32.5161 14.1138 32.5161C14.1139 32.5161 14.114 32.5161 14.1142 32.5161C14.1143 32.5161 14.1144 32.5161 14.1145 32.5161C14.1146 32.5161 14.1147 32.5161 14.1148 32.5161C14.1149 32.5161 14.115 32.5161 14.1152 32.5161C14.1153 32.5161 14.1154 32.5161 14.1155 32.5161C14.1156 32.5161 14.1157 32.5161 14.1158 32.5161C14.1159 32.5161 14.116 32.5161 14.1161 32.5161C14.1163 32.5161 14.1164 32.5161 14.1165 32.5161C14.1166 32.5161 14.1167 32.5161 14.1168 32.5161C14.1169 32.5161 14.117 32.5161 14.1171 32.5161C14.1173 32.5161 14.1174 32.5161 14.1175 32.5161C14.1176 32.5161 14.1177 32.5161 14.1178 32.5161C14.1179 32.5161 14.118 32.5161 14.1181 32.5161C14.1182 32.5161 14.1184 32.5161 14.1185 32.5161C14.1186 32.5161 14.1187 32.5161 14.1188 32.5161C14.1189 32.5161 14.119 32.5161 14.1191 32.5161C14.1192 32.5161 14.1194 32.5161 14.1195 32.5161C14.1196 32.5161 14.1197 32.5161 14.1198 32.5161C14.1199 32.5161 14.12 32.5161 14.1201 32.5161C14.1202 32.5161 14.1204 32.5161 14.1205 32.5161C14.1206 32.5161 14.1207 32.5161 14.1208 32.5161C14.1209 32.5161 14.121 32.5161 14.1211 32.5161C14.1212 32.5161 14.1213 32.5161 14.1215 32.5161C14.1216 32.5161 14.1217 32.5161 14.1218 32.5161C14.1219 32.5161 14.122 32.5161 14.1221 32.5161C14.1222 32.5161 14.1223 32.5161 14.1225 32.5161C14.1226 32.5161 14.1227 32.5161 14.1228 32.5161C14.1229 32.5161 14.123 32.5161 14.1231 32.5161C14.1232 32.5161 14.1233 32.5161 14.1235 32.5161C14.1236 32.5161 14.1237 32.5161 14.1238 32.5161C14.1239 32.5161 14.124 32.5161 14.1241 32.5161C14.1242 32.5161 14.1243 32.5161 14.1245 32.5161C14.1246 32.5161 14.1247 32.5161 14.1248 32.5161C14.1249 32.5161 14.125 32.5161 14.1251 32.5161C14.1252 32.5161 14.1253 32.5161 14.1255 32.5161C14.1256 32.5161 14.1257 32.5161 14.1258 32.5161C14.1259 32.5161 14.126 32.5161 14.1261 32.5161C14.1262 32.5161 14.1263 32.5161 14.1265 32.5161C14.1266 32.5161 14.1267 32.5161 14.1268 32.5161C14.1269 32.5161 14.127 32.5161 14.1271 32.5161C14.1272 32.5161 14.1273 32.5161 14.1275 32.5161C14.1276 32.5161 14.1277 32.5161 14.1278 32.5161C14.1279 32.5161 14.128 32.5161 14.1281 32.5161C14.1282 32.5161 14.1283 32.5161 14.1285 32.5161C14.1286 32.5161 14.1287 32.5161 14.1288 32.5161C14.1289 32.5161 14.129 32.5161 14.1291 32.5161C14.1292 32.5161 14.1293 32.5161 14.1295 32.5161C14.1296 32.5161 14.1297 32.5161 14.1298 32.5161C14.1299 32.5161 14.13 32.5161 14.1301 32.5161C14.1302 32.5161 14.1303 32.5161 14.1305 32.5161C14.1306 32.5161 14.1307 32.5161 14.1308 32.5161C14.1309 32.5161 14.131 32.5161 14.1311 32.5161C14.1312 32.5161 14.1313 32.5161 14.1315 32.5161C14.1316 32.5161 14.1317 32.5161 14.1318 32.5161C14.1319 32.5161 14.132 32.5161 14.1321 32.5161C14.1322 32.5161 14.1323 32.5161 14.1325 32.5161C14.1326 32.5161 14.1327 32.5161 14.1328 32.5161C14.1329 32.5161 14.133 32.5161 14.1331 32.5161C14.1332 32.5161 14.1334 32.5161 14.1335 32.5161C14.1336 32.5161 14.1337 32.5161 14.1338 32.5161C14.1339 32.5161 14.134 32.5161 14.1341 32.5161C14.1342 32.5161 14.1344 32.5161 14.1345 32.5161C14.1346 32.5161 14.1347 32.5161 14.1348 32.5161C14.1349 32.5161 14.135 32.5161 14.1351 32.5161C14.1352 32.5161 14.1354 32.5161 14.1355 32.5161C14.1356 32.5161 14.1357 32.5161 14.1358 32.5161C14.1359 32.5161 14.136 32.5161 14.1361 32.5161C14.1363 32.5161 14.1364 32.5161 14.1365 32.5161C14.1366 32.5161 14.1367 32.5161 14.1368 32.5161C14.1369 32.5161 14.137 32.5161 14.1371 32.5161C14.1373 32.5161 14.1374 32.5161 14.1375 32.5161C14.1376 32.5161 14.1377 32.5161 14.1378 32.5161C14.1379 32.5161 14.138 32.5161 14.1382 32.5161C14.1383 32.5161 14.1384 32.5161 14.1385 32.5161C14.1386 32.5161 14.1387 32.5161 14.1388 32.5161C14.1389 32.5161 14.139 32.5161 14.1392 32.5161C14.1393 32.5161 14.1394 32.5161 14.1395 32.5161C14.1396 32.5161 14.1397 32.5161 14.1398 32.5161C14.1399 32.5161 14.1401 32.5161 14.1402 32.5161C14.1403 32.5161 14.1404 32.5161 14.1405 32.5161C14.1406 32.5161 14.1407 32.5161 14.1408 32.5161C14.1409 32.5161 14.1411 32.5161 14.1412 32.5161C14.1413 32.5161 14.1414 32.5161 14.1415 32.5161C14.1416 32.5161 14.1417 32.5161 14.1418 32.5161C14.142 32.5161 14.1421 32.5161 14.1422 32.5161C14.1423 32.5161 14.1424 32.5161 14.1425 32.5161C14.1426 32.5161 14.1427 32.5161 14.1429 32.5161C14.143 32.5161 14.1431 32.5161 14.1432 32.5161C14.1433 32.5161 14.1434 32.5161 14.1435 32.5161C14.1436 32.5161 14.1437 32.5161 14.1439 32.5161C14.144 32.5161 14.1441 32.5161 14.1442 32.5161C14.1443 32.5161 14.1444 32.5161 14.1445 32.5161C14.1446 32.5161 14.1448 32.5161 14.1449 32.5161C14.145 32.5161 14.1451 32.5161 14.1452 32.5161C14.1453 32.5161 14.1454 32.5161 14.1455 32.5161C14.1457 32.5161 14.1458 32.5161 14.1459 32.5161C14.146 32.5161 14.1461 32.5161 14.1462 32.5161C14.1463 32.5161 14.1464 32.5161 14.1466 32.5161C14.1467 32.5161 14.1468 32.5161 14.1469 32.5161C14.147 32.5161 14.1471 32.5161 14.1472 32.5161C14.1473 32.5161 14.1474 32.5161 14.1476 32.5161C14.1477 32.5161 14.1478 32.5161 14.1479 32.5161C14.148 32.5161 14.1481 32.5161 14.1482 32.5161C14.1483 32.5161 14.1485 32.5161 14.1486 32.5161C14.1487 32.5161 14.1488 32.5161 14.1489 32.5161C14.149 32.5161 14.1491 32.5161 14.1492 32.5161C14.1494 32.5161 14.1495 32.5161 14.1496 32.5161C14.1497 32.5161 14.1498 32.5161 14.1499 32.5161C14.15 32.5161 14.1501 32.5161 14.1503 32.5161C14.1504 32.5161 14.1505 32.5161 14.1506 32.5161C14.1507 32.5161 14.1508 32.5161 14.1509 32.5161C14.151 32.5161 14.1512 32.5161 14.1513 32.5161C14.1514 32.5161 14.1515 32.5161 14.1516 32.5161C14.1517 32.5161 14.1518 32.5161 14.1519 32.5161C14.1521 32.5161 14.1522 32.5161 14.1523 32.5161C14.1524 32.5161 14.1525 32.5161 14.1526 32.5161C14.1527 32.5161 14.1528 32.5161 14.153 32.5161C14.1531 32.5161 14.1532 32.5161 14.1533 32.5161C14.1534 32.5161 14.1535 32.5161 14.1536 32.5161C14.1537 32.5161 14.1539 32.5161 14.154 32.5161C14.1541 32.5161 14.1542 32.5161 14.1543 32.5161C14.1544 32.5161 14.1545 32.5161 14.1546 32.5161C14.1548 32.5161 14.1549 32.5161 14.155 32.5161C14.1551 32.5161 14.1552 32.5161 14.1553 32.5161C14.1554 32.5161 14.1555 32.5161 14.1557 32.5161C14.1558 32.5161 14.1559 32.5161 14.156 32.5161C14.1561 32.5161 14.1562 32.5161 14.1563 32.5161C14.1565 32.5161 14.1566 32.5161 14.1567 32.5161C14.1568 32.5161 14.1569 32.5161 14.157 32.5161C14.1571 32.5161 14.1572 32.5161 14.1574 32.5161C14.1575 32.5161 14.1576 32.5161 14.1577 32.5161C14.1578 32.5161 14.1579 32.5161 14.158 32.5161C14.1581 32.5161 14.1583 32.5161 14.1584 32.5161C14.1585 32.5161 14.1586 32.5161 14.1587 32.5161C14.1588 32.5161 14.1589 32.5161 14.159 32.5161C14.1592 32.5161 14.1593 32.5161 14.1594 32.5161C14.1595 32.5161 14.1596 32.5161 14.1597 32.5161C14.1598 32.5161 14.16 32.5161 14.1601 32.5161C14.1602 32.5161 14.1603 32.5161 14.1604 32.5161C14.1605 32.5161 14.1606 32.5161 14.1607 32.5161C14.1609 32.5161 14.161 32.5161 14.1611 32.5161C14.1612 32.5161 14.1613 32.5161 14.1614 32.5161C14.1615 32.5161 14.1616 32.5161 14.1618 32.5161C14.1619 32.5161 14.162 32.5161 14.1621 32.5161C14.1622 32.5161 14.1623 32.5161 14.1624 32.5161C14.1626 32.5161 14.1627 32.5161 14.1628 32.5161C14.1629 32.5161 14.163 32.5161 14.1631 32.5161C14.1632 32.5161 14.1633 32.5161 14.1635 32.5161C14.1636 32.5161 14.1637 32.5161 14.1638 32.5161C14.1639 32.5161 14.164 32.5161 14.1641 32.5161C14.1642 32.5161 14.1644 32.5161 14.1645 32.5161C14.1646 32.5161 14.1647 32.5161 14.1648 32.5161C14.1649 32.5161 14.165 32.5161 14.1652 32.5161C14.1653 32.5161 14.1654 32.5161 14.1655 32.5161C14.1656 32.5161 14.1657 32.5161 14.1658 32.5161C14.1659 32.5161 14.1661 32.5161 14.1662 32.5161C14.1663 32.5161 14.1664 32.5161 14.1665 32.5161C14.1666 32.5161 14.1667 32.5161 14.1669 32.5161C14.167 32.5161 14.1671 32.5161 14.1672 32.5161C14.1673 32.5161 14.1674 32.5161 14.1675 32.5161C14.1676 32.5161 14.1678 32.5161 14.1679 32.5161C14.168 32.5161 14.1681 32.5161 14.1682 32.5161C14.1683 32.5161 14.1684 32.5161 14.1686 32.5161C14.1687 32.5161 14.1688 32.5161 14.1689 32.5161C14.169 32.5161 14.1691 32.5161 14.1692 32.5161C14.1693 32.5161 14.1695 32.5161 14.1696 32.5161C14.1697 32.5161 14.1698 32.5161 14.1699 32.5161C14.17 32.5161 14.1701 32.5161 14.1703 32.5161C14.1704 32.5161 14.1705 32.5161 14.1706 32.5161C14.1707 32.5161 14.1708 32.5161 14.1709 32.5161C14.1711 32.5161 14.1712 32.5161 14.1713 32.5161C14.1714 32.5161 14.1715 32.5161 14.1716 32.5161C14.1717 32.5161 14.1718 32.5161 14.172 32.5161C14.1721 32.5161 14.1722 32.5161 14.1723 32.5161C14.1724 32.5161 14.1725 32.5161 14.1726 32.5161C14.1728 32.5161 14.1729 32.5161 14.173 32.5161C14.1731 32.5161 14.1732 32.5161 14.1733 32.5161C14.1734 32.5161 14.1736 32.5161 14.1737 32.5161C14.1738 32.5161 14.1739 32.5161 14.174 32.5161C14.1741 32.5161 14.1742 32.5161 14.1743 32.5161C14.1745 32.5161 14.1746 32.5161 14.1747 32.5161C14.1748 32.5161 14.1749 32.5161 14.175 32.5161C14.1751 32.5161 14.1753 32.5161 14.1754 32.5161C14.1755 32.5161 14.1756 32.5161 14.1757 32.5161C14.1758 32.5161 14.1759 32.5161 14.1761 32.5161C14.1762 32.5161 14.1763 32.5161 14.1764 32.5161C14.1765 32.5161 14.1766 32.5161 14.1767 32.5161C14.1769 32.5161 14.177 32.5161 14.1771 32.5161C14.1772 32.5161 14.1773 32.5161 14.1774 32.5161C14.1775 32.5161 14.1776 32.5161 14.1778 32.5161C14.1779 32.5161 14.178 32.5161 14.1781 32.5161C14.1782 32.5161 14.1783 32.5161 14.1784 32.5161C14.1786 32.5161 14.1787 32.5161 14.1788 32.5161C14.1789 32.5161 14.179 32.5161 14.1791 32.5161C14.1792 32.5161 14.1794 32.5161 14.1795 32.5161C14.1796 32.5161 14.1797 32.5161 14.1798 32.5161C14.1799 32.5161 14.18 32.5161 14.1802 32.5161C14.1803 32.5161 14.1804 32.5161 14.1805 32.5161C14.1806 32.5161 14.1807 32.5161 14.1808 32.5161C14.181 32.5161 14.1811 32.5161 14.1812 32.5161C14.1813 32.5161 14.1814 32.5161 14.1815 32.5161C14.1816 32.5161 14.1818 32.5161 14.1819 32.5161C14.182 32.5161 14.1821 32.5161 14.1822 32.5161C14.1823 32.5161 14.1824 32.5161 14.1826 32.5161C14.1827 32.5161 14.1828 32.5161 14.1829 32.5161C14.183 32.5161 14.1831 32.5161 14.1832 32.5161C14.1834 32.5161 14.1835 32.5161 14.1836 32.5161C14.1837 32.5161 14.1838 32.5161 14.1839 32.5161C14.184 32.5161 14.1842 32.5161 14.1843 32.5161C14.1844 32.5161 14.1845 32.5161 14.1846 32.5161C14.1847 32.5161 14.1848 32.5161 14.185 32.5161C14.1851 32.5161 14.1852 32.5161 14.1853 32.5161C14.1854 32.5161 14.1855 32.5161 14.1856 32.5161C14.1858 32.5161 14.1859 32.5161 14.186 32.5161C14.1861 32.5161 14.1862 32.5161 14.1863 32.5161C14.1864 32.5161 14.1866 32.5161 14.1867 32.5161C14.1868 32.5161 14.1869 32.5161 14.187 32.5161V30.5161C14.1869 30.5161 14.1868 30.5161 14.1867 30.5161C14.1866 30.5161 14.1864 30.5161 14.1863 30.5161C14.1862 30.5161 14.1861 30.5161 14.186 30.5161C14.1859 30.5161 14.1858 30.5161 14.1856 30.5161C14.1855 30.5161 14.1854 30.5161 14.1853 30.5161C14.1852 30.5161 14.1851 30.5161 14.185 30.5161C14.1848 30.5161 14.1847 30.5161 14.1846 30.5161C14.1845 30.5161 14.1844 30.5161 14.1843 30.5161C14.1842 30.5161 14.184 30.5161 14.1839 30.5161C14.1838 30.5161 14.1837 30.5161 14.1836 30.5161C14.1835 30.5161 14.1834 30.5161 14.1832 30.5161C14.1831 30.5161 14.183 30.5161 14.1829 30.5161C14.1828 30.5161 14.1827 30.5161 14.1826 30.5161C14.1824 30.5161 14.1823 30.5161 14.1822 30.5161C14.1821 30.5161 14.182 30.5161 14.1819 30.5161C14.1818 30.5161 14.1816 30.5161 14.1815 30.5161C14.1814 30.5161 14.1813 30.5161 14.1812 30.5161C14.1811 30.5161 14.181 30.5161 14.1808 30.5161C14.1807 30.5161 14.1806 30.5161 14.1805 30.5161C14.1804 30.5161 14.1803 30.5161 14.1802 30.5161C14.18 30.5161 14.1799 30.5161 14.1798 30.5161C14.1797 30.5161 14.1796 30.5161 14.1795 30.5161C14.1794 30.5161 14.1792 30.5161 14.1791 30.5161C14.179 30.5161 14.1789 30.5161 14.1788 30.5161C14.1787 30.5161 14.1786 30.5161 14.1784 30.5161C14.1783 30.5161 14.1782 30.5161 14.1781 30.5161C14.178 30.5161 14.1779 30.5161 14.1778 30.5161C14.1776 30.5161 14.1775 30.5161 14.1774 30.5161C14.1773 30.5161 14.1772 30.5161 14.1771 30.5161C14.177 30.5161 14.1769 30.5161 14.1767 30.5161C14.1766 30.5161 14.1765 30.5161 14.1764 30.5161C14.1763 30.5161 14.1762 30.5161 14.1761 30.5161C14.1759 30.5161 14.1758 30.5161 14.1757 30.5161C14.1756 30.5161 14.1755 30.5161 14.1754 30.5161C14.1753 30.5161 14.1751 30.5161 14.175 30.5161C14.1749 30.5161 14.1748 30.5161 14.1747 30.5161C14.1746 30.5161 14.1745 30.5161 14.1743 30.5161C14.1742 30.5161 14.1741 30.5161 14.174 30.5161C14.1739 30.5161 14.1738 30.5161 14.1737 30.5161C14.1736 30.5161 14.1734 30.5161 14.1733 30.5161C14.1732 30.5161 14.1731 30.5161 14.173 30.5161C14.1729 30.5161 14.1728 30.5161 14.1726 30.5161C14.1725 30.5161 14.1724 30.5161 14.1723 30.5161C14.1722 30.5161 14.1721 30.5161 14.172 30.5161C14.1718 30.5161 14.1717 30.5161 14.1716 30.5161C14.1715 30.5161 14.1714 30.5161 14.1713 30.5161C14.1712 30.5161 14.1711 30.5161 14.1709 30.5161C14.1708 30.5161 14.1707 30.5161 14.1706 30.5161C14.1705 30.5161 14.1704 30.5161 14.1703 30.5161C14.1701 30.5161 14.17 30.5161 14.1699 30.5161C14.1698 30.5161 14.1697 30.5161 14.1696 30.5161C14.1695 30.5161 14.1693 30.5161 14.1692 30.5161C14.1691 30.5161 14.169 30.5161 14.1689 30.5161C14.1688 30.5161 14.1687 30.5161 14.1686 30.5161C14.1684 30.5161 14.1683 30.5161 14.1682 30.5161C14.1681 30.5161 14.168 30.5161 14.1679 30.5161C14.1678 30.5161 14.1676 30.5161 14.1675 30.5161C14.1674 30.5161 14.1673 30.5161 14.1672 30.5161C14.1671 30.5161 14.167 30.5161 14.1669 30.5161C14.1667 30.5161 14.1666 30.5161 14.1665 30.5161C14.1664 30.5161 14.1663 30.5161 14.1662 30.5161C14.1661 30.5161 14.1659 30.5161 14.1658 30.5161C14.1657 30.5161 14.1656 30.5161 14.1655 30.5161C14.1654 30.5161 14.1653 30.5161 14.1652 30.5161C14.165 30.5161 14.1649 30.5161 14.1648 30.5161C14.1647 30.5161 14.1646 30.5161 14.1645 30.5161C14.1644 30.5161 14.1642 30.5161 14.1641 30.5161C14.164 30.5161 14.1639 30.5161 14.1638 30.5161C14.1637 30.5161 14.1636 30.5161 14.1635 30.5161C14.1633 30.5161 14.1632 30.5161 14.1631 30.5161C14.163 30.5161 14.1629 30.5161 14.1628 30.5161C14.1627 30.5161 14.1626 30.5161 14.1624 30.5161C14.1623 30.5161 14.1622 30.5161 14.1621 30.5161C14.162 30.5161 14.1619 30.5161 14.1618 30.5161C14.1616 30.5161 14.1615 30.5161 14.1614 30.5161C14.1613 30.5161 14.1612 30.5161 14.1611 30.5161C14.161 30.5161 14.1609 30.5161 14.1607 30.5161C14.1606 30.5161 14.1605 30.5161 14.1604 30.5161C14.1603 30.5161 14.1602 30.5161 14.1601 30.5161C14.16 30.5161 14.1598 30.5161 14.1597 30.5161C14.1596 30.5161 14.1595 30.5161 14.1594 30.5161C14.1593 30.5161 14.1592 30.5161 14.159 30.5161C14.1589 30.5161 14.1588 30.5161 14.1587 30.5161C14.1586 30.5161 14.1585 30.5161 14.1584 30.5161C14.1583 30.5161 14.1581 30.5161 14.158 30.5161C14.1579 30.5161 14.1578 30.5161 14.1577 30.5161C14.1576 30.5161 14.1575 30.5161 14.1574 30.5161C14.1572 30.5161 14.1571 30.5161 14.157 30.5161C14.1569 30.5161 14.1568 30.5161 14.1567 30.5161C14.1566 30.5161 14.1565 30.5161 14.1563 30.5161C14.1562 30.5161 14.1561 30.5161 14.156 30.5161C14.1559 30.5161 14.1558 30.5161 14.1557 30.5161C14.1555 30.5161 14.1554 30.5161 14.1553 30.5161C14.1552 30.5161 14.1551 30.5161 14.155 30.5161C14.1549 30.5161 14.1548 30.5161 14.1546 30.5161C14.1545 30.5161 14.1544 30.5161 14.1543 30.5161C14.1542 30.5161 14.1541 30.5161 14.154 30.5161C14.1539 30.5161 14.1537 30.5161 14.1536 30.5161C14.1535 30.5161 14.1534 30.5161 14.1533 30.5161C14.1532 30.5161 14.1531 30.5161 14.153 30.5161C14.1528 30.5161 14.1527 30.5161 14.1526 30.5161C14.1525 30.5161 14.1524 30.5161 14.1523 30.5161C14.1522 30.5161 14.1521 30.5161 14.1519 30.5161C14.1518 30.5161 14.1517 30.5161 14.1516 30.5161C14.1515 30.5161 14.1514 30.5161 14.1513 30.5161C14.1512 30.5161 14.151 30.5161 14.1509 30.5161C14.1508 30.5161 14.1507 30.5161 14.1506 30.5161C14.1505 30.5161 14.1504 30.5161 14.1503 30.5161C14.1501 30.5161 14.15 30.5161 14.1499 30.5161C14.1498 30.5161 14.1497 30.5161 14.1496 30.5161C14.1495 30.5161 14.1494 30.5161 14.1492 30.5161C14.1491 30.5161 14.149 30.5161 14.1489 30.5161C14.1488 30.5161 14.1487 30.5161 14.1486 30.5161C14.1485 30.5161 14.1483 30.5161 14.1482 30.5161C14.1481 30.5161 14.148 30.5161 14.1479 30.5161C14.1478 30.5161 14.1477 30.5161 14.1476 30.5161C14.1474 30.5161 14.1473 30.5161 14.1472 30.5161C14.1471 30.5161 14.147 30.5161 14.1469 30.5161C14.1468 30.5161 14.1467 30.5161 14.1466 30.5161C14.1464 30.5161 14.1463 30.5161 14.1462 30.5161C14.1461 30.5161 14.146 30.5161 14.1459 30.5161C14.1458 30.5161 14.1457 30.5161 14.1455 30.5161C14.1454 30.5161 14.1453 30.5161 14.1452 30.5161C14.1451 30.5161 14.145 30.5161 14.1449 30.5161C14.1448 30.5161 14.1446 30.5161 14.1445 30.5161C14.1444 30.5161 14.1443 30.5161 14.1442 30.5161C14.1441 30.5161 14.144 30.5161 14.1439 30.5161C14.1437 30.5161 14.1436 30.5161 14.1435 30.5161C14.1434 30.5161 14.1433 30.5161 14.1432 30.5161C14.1431 30.5161 14.143 30.5161 14.1429 30.5161C14.1427 30.5161 14.1426 30.5161 14.1425 30.5161C14.1424 30.5161 14.1423 30.5161 14.1422 30.5161C14.1421 30.5161 14.142 30.5161 14.1418 30.5161C14.1417 30.5161 14.1416 30.5161 14.1415 30.5161C14.1414 30.5161 14.1413 30.5161 14.1412 30.5161C14.1411 30.5161 14.1409 30.5161 14.1408 30.5161C14.1407 30.5161 14.1406 30.5161 14.1405 30.5161C14.1404 30.5161 14.1403 30.5161 14.1402 30.5161C14.1401 30.5161 14.1399 30.5161 14.1398 30.5161C14.1397 30.5161 14.1396 30.5161 14.1395 30.5161C14.1394 30.5161 14.1393 30.5161 14.1392 30.5161C14.139 30.5161 14.1389 30.5161 14.1388 30.5161C14.1387 30.5161 14.1386 30.5161 14.1385 30.5161C14.1384 30.5161 14.1383 30.5161 14.1382 30.5161C14.138 30.5161 14.1379 30.5161 14.1378 30.5161C14.1377 30.5161 14.1376 30.5161 14.1375 30.5161C14.1374 30.5161 14.1373 30.5161 14.1371 30.5161C14.137 30.5161 14.1369 30.5161 14.1368 30.5161C14.1367 30.5161 14.1366 30.5161 14.1365 30.5161C14.1364 30.5161 14.1363 30.5161 14.1361 30.5161C14.136 30.5161 14.1359 30.5161 14.1358 30.5161C14.1357 30.5161 14.1356 30.5161 14.1355 30.5161C14.1354 30.5161 14.1352 30.5161 14.1351 30.5161C14.135 30.5161 14.1349 30.5161 14.1348 30.5161C14.1347 30.5161 14.1346 30.5161 14.1345 30.5161C14.1344 30.5161 14.1342 30.5161 14.1341 30.5161C14.134 30.5161 14.1339 30.5161 14.1338 30.5161C14.1337 30.5161 14.1336 30.5161 14.1335 30.5161C14.1334 30.5161 14.1332 30.5161 14.1331 30.5161C14.133 30.5161 14.1329 30.5161 14.1328 30.5161C14.1327 30.5161 14.1326 30.5161 14.1325 30.5161C14.1323 30.5161 14.1322 30.5161 14.1321 30.5161C14.132 30.5161 14.1319 30.5161 14.1318 30.5161C14.1317 30.5161 14.1316 30.5161 14.1315 30.5161C14.1313 30.5161 14.1312 30.5161 14.1311 30.5161C14.131 30.5161 14.1309 30.5161 14.1308 30.5161C14.1307 30.5161 14.1306 30.5161 14.1305 30.5161C14.1303 30.5161 14.1302 30.5161 14.1301 30.5161C14.13 30.5161 14.1299 30.5161 14.1298 30.5161C14.1297 30.5161 14.1296 30.5161 14.1295 30.5161C14.1293 30.5161 14.1292 30.5161 14.1291 30.5161C14.129 30.5161 14.1289 30.5161 14.1288 30.5161C14.1287 30.5161 14.1286 30.5161 14.1285 30.5161C14.1283 30.5161 14.1282 30.5161 14.1281 30.5161C14.128 30.5161 14.1279 30.5161 14.1278 30.5161C14.1277 30.5161 14.1276 30.5161 14.1275 30.5161C14.1273 30.5161 14.1272 30.5161 14.1271 30.5161C14.127 30.5161 14.1269 30.5161 14.1268 30.5161C14.1267 30.5161 14.1266 30.5161 14.1265 30.5161C14.1263 30.5161 14.1262 30.5161 14.1261 30.5161C14.126 30.5161 14.1259 30.5161 14.1258 30.5161C14.1257 30.5161 14.1256 30.5161 14.1255 30.5161C14.1253 30.5161 14.1252 30.5161 14.1251 30.5161C14.125 30.5161 14.1249 30.5161 14.1248 30.5161C14.1247 30.5161 14.1246 30.5161 14.1245 30.5161C14.1243 30.5161 14.1242 30.5161 14.1241 30.5161C14.124 30.5161 14.1239 30.5161 14.1238 30.5161C14.1237 30.5161 14.1236 30.5161 14.1235 30.5161C14.1233 30.5161 14.1232 30.5161 14.1231 30.5161C14.123 30.5161 14.1229 30.5161 14.1228 30.5161C14.1227 30.5161 14.1226 30.5161 14.1225 30.5161C14.1223 30.5161 14.1222 30.5161 14.1221 30.5161C14.122 30.5161 14.1219 30.5161 14.1218 30.5161C14.1217 30.5161 14.1216 30.5161 14.1215 30.5161C14.1213 30.5161 14.1212 30.5161 14.1211 30.5161C14.121 30.5161 14.1209 30.5161 14.1208 30.5161C14.1207 30.5161 14.1206 30.5161 14.1205 30.5161C14.1204 30.5161 14.1202 30.5161 14.1201 30.5161C14.12 30.5161 14.1199 30.5161 14.1198 30.5161C14.1197 30.5161 14.1196 30.5161 14.1195 30.5161C14.1194 30.5161 14.1192 30.5161 14.1191 30.5161C14.119 30.5161 14.1189 30.5161 14.1188 30.5161C14.1187 30.5161 14.1186 30.5161 14.1185 30.5161C14.1184 30.5161 14.1182 30.5161 14.1181 30.5161C14.118 30.5161 14.1179 30.5161 14.1178 30.5161C14.1177 30.5161 14.1176 30.5161 14.1175 30.5161C14.1174 30.5161 14.1173 30.5161 14.1171 30.5161C14.117 30.5161 14.1169 30.5161 14.1168 30.5161C14.1167 30.5161 14.1166 30.5161 14.1165 30.5161C14.1164 30.5161 14.1163 30.5161 14.1161 30.5161C14.116 30.5161 14.1159 30.5161 14.1158 30.5161C14.1157 30.5161 14.1156 30.5161 14.1155 30.5161C14.1154 30.5161 14.1153 30.5161 14.1152 30.5161C14.115 30.5161 14.1149 30.5161 14.1148 30.5161C14.1147 30.5161 14.1146 30.5161 14.1145 30.5161C14.1144 30.5161 14.1143 30.5161 14.1142 30.5161C14.114 30.5161 14.1139 30.5161 14.1138 30.5161C14.1137 30.5161 14.1136 30.5161 14.1135 30.5161C14.1134 30.5161 14.1133 30.5161 14.1132 30.5161C14.1131 30.5161 14.1129 30.5161 14.1128 30.5161C14.1127 30.5161 14.1126 30.5161 14.1125 30.5161C14.1124 30.5161 14.1123 30.5161 14.1122 30.5161C14.1121 30.5161 14.112 30.5161 14.1118 30.5161C14.1117 30.5161 14.1116 30.5161 14.1115 30.5161C14.1114 30.5161 14.1113 30.5161 14.1112 30.5161C14.1111 30.5161 14.111 30.5161 14.1108 30.5161C14.1107 30.5161 14.1106 30.5161 14.1105 30.5161C14.1104 30.5161 14.1103 30.5161 14.1102 30.5161C14.1101 30.5161 14.11 30.5161 14.1099 30.5161C14.1097 30.5161 14.1096 30.5161 14.1095 30.5161C14.1094 30.5161 14.1093 30.5161 14.1092 30.5161C14.1091 30.5161 14.109 30.5161 14.1089 30.5161C14.1088 30.5161 14.1086 30.5161 14.1085 30.5161C14.1084 30.5161 14.1083 30.5161 14.1082 30.5161C14.1081 30.5161 14.108 30.5161 14.1079 30.5161C14.1078 30.5161 14.1077 30.5161 14.1075 30.5161C14.1074 30.5161 14.1073 30.5161 14.1072 30.5161C14.1071 30.5161 14.107 30.5161 14.1069 30.5161C14.1068 30.5161 14.1067 30.5161 14.1066 30.5161C14.1064 30.5161 14.1063 30.5161 14.1062 30.5161C14.1061 30.5161 14.106 30.5161 14.1059 30.5161C14.1058 30.5161 14.1057 30.5161 14.1056 30.5161C14.1055 30.5161 14.1053 30.5161 14.1052 30.5161C14.1051 30.5161 14.105 30.5161 14.1049 30.5161C14.1048 30.5161 14.1047 30.5161 14.1046 30.5161C14.1045 30.5161 14.1044 30.5161 14.1042 30.5161C14.1041 30.5161 14.104 30.5161 14.1039 30.5161C14.1038 30.5161 14.1037 30.5161 14.1036 30.5161C14.1035 30.5161 14.1034 30.5161 14.1033 30.5161C14.1031 30.5161 14.103 30.5161 14.1029 30.5161C14.1028 30.5161 14.1027 30.5161 14.1026 30.5161C14.1025 30.5161 14.1024 30.5161 14.1023 30.5161C14.1022 30.5161 14.102 30.5161 14.1019 30.5161C14.1018 30.5161 14.1017 30.5161 14.1016 30.5161C14.1015 30.5161 14.1014 30.5161 14.1013 30.5161C14.1012 30.5161 14.1011 30.5161 14.101 30.5161C14.1008 30.5161 14.1007 30.5161 14.1006 30.5161C14.1005 30.5161 14.1004 30.5161 14.1003 30.5161C14.1002 30.5161 14.1001 30.5161 14.1 30.5161C14.0999 30.5161 14.0997 30.5161 14.0996 30.5161C14.0995 30.5161 14.0994 30.5161 14.0993 30.5161C14.0992 30.5161 14.0991 30.5161 14.099 30.5161C14.0989 30.5161 14.0988 30.5161 14.0987 30.5161C14.0985 30.5161 14.0984 30.5161 14.0983 30.5161C14.0982 30.5161 14.0981 30.5161 14.098 30.5161C14.0979 30.5161 14.0978 30.5161 14.0977 30.5161C14.0976 30.5161 14.0974 30.5161 14.0973 30.5161C14.0972 30.5161 14.0971 30.5161 14.097 30.5161C14.0969 30.5161 14.0968 30.5161 14.0967 30.5161C14.0966 30.5161 14.0965 30.5161 14.0964 30.5161C14.0962 30.5161 14.0961 30.5161 14.096 30.5161C14.0959 30.5161 14.0958 30.5161 14.0957 30.5161C14.0956 30.5161 14.0955 30.5161 14.0954 30.5161C14.0953 30.5161 14.0951 30.5161 14.095 30.5161C14.0949 30.5161 14.0948 30.5161 14.0947 30.5161C14.0946 30.5161 14.0945 30.5161 14.0944 30.5161C14.0943 30.5161 14.0942 30.5161 14.0941 30.5161C14.0939 30.5161 14.0938 30.5161 14.0937 30.5161C14.0936 30.5161 14.0935 30.5161 14.0934 30.5161C14.0933 30.5161 14.0932 30.5161 14.0931 30.5161C14.093 30.5161 14.0929 30.5161 14.0927 30.5161C14.0926 30.5161 14.0925 30.5161 14.0924 30.5161C14.0923 30.5161 14.0922 30.5161 14.0921 30.5161C14.092 30.5161 14.0919 30.5161 14.0918 30.5161C14.0917 30.5161 14.0915 30.5161 14.0914 30.5161C14.0913 30.5161 14.0912 30.5161 14.0911 30.5161C14.091 30.5161 14.0909 30.5161 14.0908 30.5161C14.0907 30.5161 14.0906 30.5161 14.0905 30.5161C14.0903 30.5161 14.0902 30.5161 14.0901 30.5161C14.09 30.5161 14.0899 30.5161 14.0898 30.5161C14.0897 30.5161 14.0896 30.5161 14.0895 30.5161C14.0894 30.5161 14.0893 30.5161 14.0891 30.5161C14.089 30.5161 14.0889 30.5161 14.0888 30.5161C14.0887 30.5161 14.0886 30.5161 14.0885 30.5161C14.0884 30.5161 14.0883 30.5161 14.0882 30.5161C14.0881 30.5161 14.0879 30.5161 14.0878 30.5161C14.0877 30.5161 14.0876 30.5161 14.0875 30.5161C14.0874 30.5161 14.0873 30.5161 14.0872 30.5161C14.0871 30.5161 14.087 30.5161 14.0869 30.5161C14.0867 30.5161 14.0866 30.5161 14.0865 30.5161C14.0864 30.5161 14.0863 30.5161 14.0862 30.5161C14.0861 30.5161 14.086 30.5161 14.0859 30.5161C14.0858 30.5161 14.0857 30.5161 14.0856 30.5161C14.0854 30.5161 14.0853 30.5161 14.0852 30.5161C14.0851 30.5161 14.085 30.5161 14.0849 30.5161C14.0848 30.5161 14.0847 30.5161 14.0846 30.5161C14.0845 30.5161 14.0844 30.5161 14.0842 30.5161C14.0841 30.5161 14.084 30.5161 14.0839 30.5161C14.0838 30.5161 14.0837 30.5161 14.0836 30.5161C14.0835 30.5161 14.0834 30.5161 14.0833 30.5161C14.0832 30.5161 14.083 30.5161 14.0829 30.5161C14.0828 30.5161 14.0827 30.5161 14.0826 30.5161C14.0825 30.5161 14.0824 30.5161 14.0823 30.5161C14.0822 30.5161 14.0821 30.5161 14.082 30.5161C14.0819 30.5161 14.0817 30.5161 14.0816 30.5161C14.0815 30.5161 14.0814 30.5161 14.0813 30.5161C14.0812 30.5161 14.0811 30.5161 14.081 30.5161C14.0809 30.5161 14.0808 30.5161 14.0807 30.5161C14.0806 30.5161 14.0804 30.5161 14.0803 30.5161C14.0802 30.5161 14.0801 30.5161 14.08 30.5161C14.0799 30.5161 14.0798 30.5161 14.0797 30.5161C14.0796 30.5161 14.0795 30.5161 14.0794 30.5161C14.0793 30.5161 14.0791 30.5161 14.079 30.5161C14.0789 30.5161 14.0788 30.5161 14.0787 30.5161C14.0786 30.5161 14.0785 30.5161 14.0784 30.5161C14.0783 30.5161 14.0782 30.5161 14.0781 30.5161C14.0779 30.5161 14.0778 30.5161 14.0777 30.5161C14.0776 30.5161 14.0775 30.5161 14.0774 30.5161C14.0773 30.5161 14.0772 30.5161 14.0771 30.5161C14.077 30.5161 14.0769 30.5161 14.0768 30.5161C14.0766 30.5161 14.0765 30.5161 14.0764 30.5161C14.0763 30.5161 14.0762 30.5161 14.0761 30.5161C14.076 30.5161 14.0759 30.5161 14.0758 30.5161C14.0757 30.5161 14.0756 30.5161 14.0755 30.5161C14.0754 30.5161 14.0752 30.5161 14.0751 30.5161C14.075 30.5161 14.0749 30.5161 14.0748 30.5161C14.0747 30.5161 14.0746 30.5161 14.0745 30.5161C14.0744 30.5161 14.0743 30.5161 14.0742 30.5161C14.0741 30.5161 14.0739 30.5161 14.0738 30.5161C14.0737 30.5161 14.0736 30.5161 14.0735 30.5161C14.0734 30.5161 14.0733 30.5161 14.0732 30.5161C14.0731 30.5161 14.073 30.5161 14.0729 30.5161C14.0728 30.5161 14.0726 30.5161 14.0725 30.5161C14.0724 30.5161 14.0723 30.5161 14.0722 30.5161C14.0721 30.5161 14.072 30.5161 14.0719 30.5161C14.0718 30.5161 14.0717 30.5161 14.0716 30.5161C14.0715 30.5161 14.0714 30.5161 14.0712 30.5161C14.0711 30.5161 14.071 30.5161 14.0709 30.5161C14.0708 30.5161 14.0707 30.5161 14.0706 30.5161C14.0705 30.5161 14.0704 30.5161 14.0703 30.5161C14.0702 30.5161 14.0701 30.5161 14.0699 30.5161C14.0698 30.5161 14.0697 30.5161 14.0696 30.5161C14.0695 30.5161 14.0694 30.5161 14.0693 30.5161C14.0692 30.5161 14.0691 30.5161 14.069 30.5161C14.0689 30.5161 14.0688 30.5161 14.0687 30.5161C14.0685 30.5161 14.0684 30.5161 14.0683 30.5161C14.0682 30.5161 14.0681 30.5161 14.068 30.5161C14.0679 30.5161 14.0678 30.5161 14.0677 30.5161C14.0676 30.5161 14.0675 30.5161 14.0674 30.5161C14.0673 30.5161 14.0671 30.5161 14.067 30.5161C14.0669 30.5161 14.0668 30.5161 14.0667 30.5161C14.0666 30.5161 14.0665 30.5161 14.0664 30.5161C14.0663 30.5161 14.0662 30.5161 14.0661 30.5161C14.066 30.5161 14.0659 30.5161 14.0657 30.5161C14.0656 30.5161 14.0655 30.5161 14.0654 30.5161C14.0653 30.5161 14.0652 30.5161 14.0651 30.5161C14.065 30.5161 14.0649 30.5161 14.0648 30.5161C14.0647 30.5161 14.0646 30.5161 14.0645 30.5161C14.0643 30.5161 14.0642 30.5161 14.0641 30.5161C14.064 30.5161 14.0639 30.5161 14.0638 30.5161C14.0637 30.5161 14.0636 30.5161 14.0635 30.5161C14.0634 30.5161 14.0633 30.5161 14.0632 30.5161C14.0631 30.5161 14.0629 30.5161 14.0628 30.5161C14.0627 30.5161 14.0626 30.5161 14.0625 30.5161C14.0624 30.5161 14.0623 30.5161 14.0622 30.5161C14.0621 30.5161 14.062 30.5161 14.0619 30.5161C14.0618 30.5161 14.0617 30.5161 14.0616 30.5161C14.0614 30.5161 14.0613 30.5161 14.0612 30.5161C14.0611 30.5161 14.061 30.5161 14.0609 30.5161C14.0608 30.5161 14.0607 30.5161 14.0606 30.5161C14.0605 30.5161 14.0604 30.5161 14.0603 30.5161C14.0602 30.5161 14.06 30.5161 14.0599 30.5161C14.0598 30.5161 14.0597 30.5161 14.0596 30.5161C14.0595 30.5161 14.0594 30.5161 14.0593 30.5161C14.0592 30.5161 14.0591 30.5161 14.059 30.5161C14.0589 30.5161 14.0588 30.5161 14.0587 30.5161C14.0585 30.5161 14.0584 30.5161 14.0583 30.5161C14.0582 30.5161 14.0581 30.5161 14.058 30.5161C14.0579 30.5161 14.0578 30.5161 14.0577 30.5161C14.0576 30.5161 14.0575 30.5161 14.0574 30.5161C14.0573 30.5161 14.0572 30.5161 14.057 30.5161C14.0569 30.5161 14.0568 30.5161 14.0567 30.5161C14.0566 30.5161 14.0565 30.5161 14.0564 30.5161C14.0563 30.5161 14.0562 30.5161 14.0561 30.5161C14.056 30.5161 14.0559 30.5161 14.0558 30.5161C14.0557 30.5161 14.0555 30.5161 14.0554 30.5161C14.0553 30.5161 14.0552 30.5161 14.0551 30.5161C14.055 30.5161 14.0549 30.5161 14.0548 30.5161C14.0547 30.5161 14.0546 30.5161 14.0545 30.5161C14.0544 30.5161 14.0543 30.5161 14.0542 30.5161C14.054 30.5161 14.0539 30.5161 14.0538 30.5161C14.0537 30.5161 14.0536 30.5161 14.0535 30.5161C14.0534 30.5161 14.0533 30.5161 14.0532 30.5161C14.0531 30.5161 14.053 30.5161 14.0529 30.5161C14.0528 30.5161 14.0527 30.5161 14.0525 30.5161C14.0524 30.5161 14.0523 30.5161 14.0522 30.5161C14.0521 30.5161 14.052 30.5161 14.0519 30.5161C14.0518 30.5161 14.0517 30.5161 14.0516 30.5161C14.0515 30.5161 14.0514 30.5161 14.0513 30.5161C14.0512 30.5161 14.0511 30.5161 14.0509 30.5161C14.0508 30.5161 14.0507 30.5161 14.0506 30.5161C14.0505 30.5161 14.0504 30.5161 14.0503 30.5161C14.0502 30.5161 14.0501 30.5161 14.05 30.5161C14.0499 30.5161 14.0498 30.5161 14.0497 30.5161C14.0496 30.5161 14.0495 30.5161 14.0493 30.5161C14.0492 30.5161 14.0491 30.5161 14.049 30.5161C14.0489 30.5161 14.0488 30.5161 14.0487 30.5161C14.0486 30.5161 14.0485 30.5161 14.0484 30.5161C14.0483 30.5161 14.0482 30.5161 14.0481 30.5161C14.048 30.5161 14.0479 30.5161 14.0477 30.5161C14.0476 30.5161 14.0475 30.5161 14.0474 30.5161C14.0473 30.5161 14.0472 30.5161 14.0471 30.5161C14.047 30.5161 14.0469 30.5161 14.0468 30.5161C14.0467 30.5161 14.0466 30.5161 14.0465 30.5161C14.0464 30.5161 14.0463 30.5161 14.0461 30.5161C14.046 30.5161 14.0459 30.5161 14.0458 30.5161C14.0457 30.5161 14.0456 30.5161 14.0455 30.5161C14.0454 30.5161 14.0453 30.5161 14.0452 30.5161C14.0451 30.5161 14.045 30.5161 14.0449 30.5161C14.0448 30.5161 14.0447 30.5161 14.0445 30.5161C14.0444 30.5161 14.0443 30.5161 14.0442 30.5161C14.0441 30.5161 14.044 30.5161 14.0439 30.5161C14.0438 30.5161 14.0437 30.5161 14.0436 30.5161C14.0435 30.5161 14.0434 30.5161 14.0433 30.5161C14.0432 30.5161 14.0431 30.5161 14.043 30.5161C14.0428 30.5161 14.0427 30.5161 14.0426 30.5161C14.0425 30.5161 14.0424 30.5161 14.0423 30.5161C14.0422 30.5161 14.0421 30.5161 14.042 30.5161C14.0419 30.5161 14.0418 30.5161 14.0417 30.5161C14.0416 30.5161 14.0415 30.5161 14.0414 30.5161C14.0413 30.5161 14.0411 30.5161 14.041 30.5161C14.0409 30.5161 14.0408 30.5161 14.0407 30.5161C14.0406 30.5161 14.0405 30.5161 14.0404 30.5161C14.0403 30.5161 14.0402 30.5161 14.0401 30.5161C14.04 30.5161 14.0399 30.5161 14.0398 30.5161C14.0397 30.5161 14.0396 30.5161 14.0394 30.5161C14.0393 30.5161 14.0392 30.5161 14.0391 30.5161C14.039 30.5161 14.0389 30.5161 14.0388 30.5161C14.0387 30.5161 14.0386 30.5161 14.0385 30.5161C14.0384 30.5161 14.0383 30.5161 14.0382 30.5161C14.0381 30.5161 14.038 30.5161 14.0379 30.5161C14.0378 30.5161 14.0376 30.5161 14.0375 30.5161C14.0374 30.5161 14.0373 30.5161 14.0372 30.5161C14.0371 30.5161 14.037 30.5161 14.0369 30.5161C14.0368 30.5161 14.0367 30.5161 14.0366 30.5161C14.0365 30.5161 14.0364 30.5161 14.0363 30.5161C14.0362 30.5161 14.0361 30.5161 14.0359 30.5161C14.0358 30.5161 14.0357 30.5161 14.0356 30.5161C14.0355 30.5161 14.0354 30.5161 14.0353 30.5161C14.0352 30.5161 14.0351 30.5161 14.035 30.5161C14.0349 30.5161 14.0348 30.5161 14.0347 30.5161C14.0346 30.5161 14.0345 30.5161 14.0344 30.5161C14.0343 30.5161 14.0341 30.5161 14.034 30.5161C14.0339 30.5161 14.0338 30.5161 14.0337 30.5161C14.0336 30.5161 14.0335 30.5161 14.0334 30.5161C14.0333 30.5161 14.0332 30.5161 14.0331 30.5161C14.033 30.5161 14.0329 30.5161 14.0328 30.5161C14.0327 30.5161 14.0326 30.5161 14.0325 30.5161C14.0324 30.5161 14.0322 30.5161 14.0321 30.5161C14.032 30.5161 14.0319 30.5161 14.0318 30.5161C14.0317 30.5161 14.0316 30.5161 14.0315 30.5161C14.0314 30.5161 14.0313 30.5161 14.0312 30.5161C14.0311 30.5161 14.031 30.5161 14.0309 30.5161C14.0308 30.5161 14.0307 30.5161 14.0306 30.5161C14.0304 30.5161 14.0303 30.5161 14.0302 30.5161C14.0301 30.5161 14.03 30.5161 14.0299 30.5161C14.0298 30.5161 14.0297 30.5161 14.0296 30.5161C14.0295 30.5161 14.0294 30.5161 14.0293 30.5161C14.0292 30.5161 14.0291 30.5161 14.029 30.5161C14.0289 30.5161 14.0288 30.5161 14.0287 30.5161C14.0285 30.5161 14.0284 30.5161 14.0283 30.5161C14.0282 30.5161 14.0281 30.5161 14.028 30.5161C14.0279 30.5161 14.0278 30.5161 14.0277 30.5161C14.0276 30.5161 14.0275 30.5161 14.0274 30.5161C14.0273 30.5161 14.0272 30.5161 14.0271 30.5161C14.027 30.5161 14.0269 30.5161 14.0268 30.5161C14.0267 30.5161 14.0265 30.5161 14.0264 30.5161C14.0263 30.5161 14.0262 30.5161 14.0261 30.5161C14.026 30.5161 14.0259 30.5161 14.0258 30.5161C14.0257 30.5161 14.0256 30.5161 14.0255 30.5161C14.0254 30.5161 14.0253 30.5161 14.0252 30.5161C14.0251 30.5161 14.025 30.5161 14.0249 30.5161C14.0248 30.5161 14.0246 30.5161 14.0245 30.5161C14.0244 30.5161 14.0243 30.5161 14.0242 30.5161C14.0241 30.5161 14.024 30.5161 14.0239 30.5161C14.0238 30.5161 14.0237 30.5161 14.0236 30.5161C14.0235 30.5161 14.0234 30.5161 14.0233 30.5161C14.0232 30.5161 14.0231 30.5161 14.023 30.5161C14.0229 30.5161 14.0228 30.5161 14.0227 30.5161C14.0225 30.5161 14.0224 30.5161 14.0223 30.5161C14.0222 30.5161 14.0221 30.5161 14.022 30.5161C14.0219 30.5161 14.0218 30.5161 14.0217 30.5161C14.0216 30.5161 14.0215 30.5161 14.0214 30.5161C14.0213 30.5161 14.0212 30.5161 14.0211 30.5161C14.021 30.5161 14.0209 30.5161 14.0208 30.5161C14.0207 30.5161 14.0205 30.5161 14.0204 30.5161C14.0203 30.5161 14.0202 30.5161 14.0201 30.5161C14.02 30.5161 14.0199 30.5161 14.0198 30.5161C14.0197 30.5161 14.0196 30.5161 14.0195 30.5161C14.0194 30.5161 14.0193 30.5161 14.0192 30.5161C14.0191 30.5161 14.019 30.5161 14.0189 30.5161C14.0188 30.5161 14.0187 30.5161 14.0186 30.5161V32.5161ZM14.104 32.5127C14.1876 32.5196 14.2716 32.5234 14.3555 32.5234V30.5234C14.3319 30.5234 14.3036 30.5224 14.2701 30.5196L14.104 32.5127ZM14.3555 32.5234C14.6985 32.5234 15.0521 32.4858 15.3763 32.3688L14.697 30.4877C14.6696 30.4976 14.5691 30.5234 14.3555 30.5234V32.5234ZM15.3763 32.3688C15.7052 32.25 16.0036 32.053 16.2367 31.7669L14.6862 30.5036C14.6892 30.4999 14.6928 30.496 14.6968 30.4924C14.7007 30.4887 14.7043 30.486 14.7069 30.4842C14.7126 30.4802 14.711 30.4826 14.697 30.4877L15.3763 32.3688ZM16.2248 31.7812C16.4404 31.5264 16.5809 31.2307 16.6731 30.9329L14.7625 30.3415C14.7277 30.4539 14.6973 30.4902 14.698 30.4893L16.2248 31.7812ZM16.6502 30.9986L17.2435 29.4678L15.3786 28.7451L14.7854 30.2758L16.6502 30.9986ZM14.4742 22.3623L16.1954 28.1045L18.1112 27.5303L16.39 21.7881L14.4742 22.3623ZM16.1622 27.9506L16.4625 30.1845L18.4447 29.918L18.1444 27.6842L16.1622 27.9506ZM17.3471 29.057L15.9115 29.2108L16.1246 31.1994L17.5601 31.0456L17.3471 29.057ZM16.9618 29.8743L14.1127 21.7445L12.2252 22.4059L15.0743 30.5358L16.9618 29.8743ZM13.1689 23.0752H15.4321V21.0752H13.1689V23.0752Z"
    fill="none" />
</svg>